M48
; DRILL file {KiCad 8.0.4} date 2025-01-12T18:10:03+0300
; FORMAT={-:-/ absolute / inch / decimal}
; #@! TF.CreationDate,2025-01-12T18:10:03+03:00
; #@! TF.GenerationSoftware,Kicad,Pcbnew,8.0.4
; #@! TF.FileFunction,Plated,1,2,PTH
FMAT,2
INCH
; #@! TA.AperFunction,Plated,PTH,ViaDrill
T1C0.0157
; #@! TA.AperFunction,Plated,PTH,ComponentDrill
T2C0.0256
; #@! TA.AperFunction,Plated,PTH,ComponentDrill
T3C0.0394
%
G90
G05
T1
X5.8417Y-2.3094
X5.9213Y-2.0197
X5.9222Y-2.124
X5.9222Y-2.1634
X5.9587Y-2.0118
X5.9626Y-2.1634
X5.9862Y-2.0807
X6.002Y-2.1634
X6.0512Y-2.0807
X6.061Y-1.938
X6.061Y-1.997
X6.1122Y-1.8642
X6.1437Y-2.0118
X6.1781Y-2.0118
X6.2087Y-1.936
X6.2126Y-1.9774
X6.2126Y-2.0118
X6.2797Y-2.1738
X6.3382Y-1.9224
X6.3402Y-2.2217
X6.3776Y-2.0159
X6.3776Y-2.0947
X6.3785Y-2.0553
X6.4038Y-1.8903
X6.4868Y-1.8004
X6.4868Y-1.8368
X6.4947Y-1.9392
X6.5075Y-1.9726
X6.5272Y-1.8004
X6.5272Y-1.8368
X6.5327Y-2.1276
X6.5335Y-2.0593
X6.552Y-2.1799
X6.5728Y-2.2185
X6.5736Y-1.8768
X6.6181Y-1.8179
X6.6378Y-2.0177
X6.6378Y-2.0669
X6.6496Y-2.1732
X6.6791Y-1.8179
X6.687Y-2.0177
X6.687Y-2.0669
X6.7293Y-1.8415
X6.7707Y-1.8415
X6.7717Y-1.9478
X6.7795Y-2.3268
X6.7815Y-1.9823
X6.8346Y-1.7894
X6.8346Y-1.8878
X6.8346Y-1.9783
X6.8346Y-2.1516
X6.8346Y-2.2372
X6.8346Y-2.3248
X6.9331Y-1.7894
X6.9331Y-2.3248
X6.9528Y-2.1122
X6.9528Y-2.1516
X6.9941Y-1.9596
X7.0512Y-1.7894
X7.0512Y-2.3248
X7.0709Y-1.8957
X7.0709Y-2.2185
X7.1102Y-1.8957
X7.1102Y-2.2185
X7.1476Y-1.8957
X7.1476Y-2.2185
X7.1555Y-1.7894
X7.1555Y-2.3248
X7.1988Y-1.8799
X7.1988Y-2.2343
T2
X5.9898Y-2.2315
X5.9898Y-2.2815
X6.0398Y-2.2315
X6.0398Y-2.2815
X6.0898Y-2.2315
X6.0898Y-2.2815
X6.1398Y-2.2315
X6.1398Y-2.2815
X6.1898Y-2.2315
X6.1898Y-2.2815
T3
G00X5.7431Y-1.9272
M15
G01X5.7549Y-1.9272
M16
G05
G00X5.7431Y-2.187
M15
G01X5.7549Y-2.187
M16
G05
M30
